<svg xmlns="http://www.w3.org/2000/svg" width="40" height="40" viewBox="0 0 24 24"><path fill="#FFC107" d="M12 1.25C6.063 1.25 1.25 6.063 1.25 12S6.063 22.75 12 22.75 22.75 17.937 22.75 12 17.937 1.25 12 1.25Z"/><path fill="#FFA100" fill-rule="evenodd" d="M12 5.25a6.75 6.75 0 1 0 0 13.5 6.75 6.75 0 0 0 0-13.5ZM3.75 12a8.25 8.25 0 1 1 16.5 0 8.25 8.25 0 0 1-16.5 0Z"/><g fill="#FAFAFA" fill-rule="evenodd"><path d="M9.25 10.5a2.25 2.25 0 0 1 2.25-2.25H14a.75.75 0 0 1 0 1.5h-2.5a.75.75 0 0 0 0 1.5h1a2.25 2.25 0 0 1 0 4.5H10a.75.75 0 0 1 0-1.5h2.5a.75.75 0 0 0 0-1.5h-1a2.25 2.25 0 0 1-2.25-2.25Z"/><path d="M12 6.25a.75.75 0 0 1 .75.75v2a.75.75 0 0 1-1.5 0V7a.75.75 0 0 1 .75-.75Zm0 8a.75.75 0 0 1 .75.75v2a.75.75 0 0 1-1.5 0v-2a.75.75 0 0 1 .75-.75Z"/></g></svg>
