<svg xmlns="http://www.w3.org/2000/svg" width="40" height="40" viewBox="0 0 24 24"><path fill="#FFB300" d="M16.872 15.073a.741.741 0 0 1-.514-.205.744.744 0 0 1-.031-1.055l.01-.01a.75.75 0 0 1 .375-.214c2.677-.613 5.514-3.979 5.769-9.089H19.17a.75.75 0 0 1 0-1.5h4.08a.75.75 0 0 1 .75.75c0 6.349-3.47 10.477-6.912 11.292a.789.789 0 0 1-.216.031zM7.05 15.06a.796.796 0 0 1-.18-.021C3.457 14.198 0 10.051 0 3.75A.75.75 0 0 1 .75 3h4a.75.75 0 0 1 0 1.5H1.518c.247 5.104 2.995 8.414 5.711 9.082a.75.75 0 0 1-.179 1.478zM13.25 16.21a.75.75 0 0 0-.75.75h-1a.75.75 0 0 0-1.5 0v3.79c0 .414.336.75.75.75h2.5a.75.75 0 0 0 .75-.75v-3.79a.75.75 0 0 0-.75-.75z"/><path fill="#FFC107" d="M14.25 20h-4.5A2.752 2.752 0 0 0 7 22.75v.5c0 .414.336.75.75.75h8.5a.75.75 0 0 0 .75-.75v-.5A2.752 2.752 0 0 0 14.25 20zM18.25 0H5.75C4.785 0 4 .785 4 1.75v7.255c.043 6.456 7.439 9.095 7.754 9.204a.744.744 0 0 0 .491.001C12.561 18.1 20 15.46 20 9V1.75C20 .785 19.215 0 18.25 0z"/></svg>
