<svg xmlns="http://www.w3.org/2000/svg" width="40" height="40" data-name="Layer 1" viewBox="0 0 21.5 21.5">
  <path
    d="M14.47 3.54a.752.752 0 0 0-.63-.54c-.3-.04-.59.11-.74.37L9.52 9.63 6.2 7.14a.774.774 0 0 0-.72-.1c-.24.09-.42.3-.47.55l-.8 4.02c-.71 3.56 2.01 6.88 5.64 6.88h1.27c3.82 0 6.58-3.66 5.53-7.33l-2.18-7.63Z"
    style="fill:#f44336"/>
  <path
    d="M12.96 11.51a.762.762 0 0 0-.61-.51.744.744 0 0 0-.72.33l-1.59 2.39-1.38-.89a.736.736 0 0 0-.69-.06c-.23.09-.39.29-.45.52l-.24 1.04c-.5 2.13 1.12 4.17 3.31 4.17 2.32 0 3.95-2.27 3.22-4.47l-.84-2.52Z"
    style="fill:#ffa100"/>
</svg>
