<svg xmlns="http://www.w3.org/2000/svg" width="40" height="40" viewBox="0 0 24 24"><path fill="#FFCC80" d="M22.121 13.41c.816 0 1.475-.601 1.475-1.345 0-.745-.659-1.345-1.475-1.345h-.983c.816 0 1.475-.601 1.475-1.345s-.659-1.345-1.475-1.345h-1.966c.816 0 1.475-.601 1.475-1.345s-.659-1.345-1.475-1.345h-5.919c-1.536 0-2.759.503-3.65 1.337-.726.611-1.661.47-3.118.47H0v10.161h7.189c1.652 0 3.114.748 4.427 1.423l.002.001a.11.11 0 0 1 .015.008v-.001c1.202.618 2.504.95 3.606.95 2.9 0 3.864-1.633 4.513-2.691.315-.511.551-.897.895-.897h1.475c.816 0 1.475-.601 1.475-1.345-.001-.745-.66-1.346-1.476-1.346z"/><path fill="#607D8B" d="M7.4 10.5H3.6a.748.748 0 0 1-.743-.849l.4-3A.749.749 0 0 1 4 6h3a.75.75 0 0 1 .744.651l.4 3a.753.753 0 0 1-.744.849zM7 18.5H4a.75.75 0 0 1-.744-.651l-.4-3A.753.753 0 0 1 3.6 14h3.8a.748.748 0 0 1 .743.849l-.4 3A.749.749 0 0 1 7 18.5z"/><path fill="#E0E0E0" d="M7.25 15.5h-3.5c-.965 0-1.75-.785-1.75-1.75v-3C2 9.785 2.785 9 3.75 9h3.5C8.215 9 9 9.785 9 10.75v3c0 .965-.785 1.75-1.75 1.75z"/><path d="M20.5 17.55a.75.75 0 0 1-.53-1.281c.293-.295.772-.298 1.065-.005s.298.763.005 1.056l-.01.01a.744.744 0 0 1-.53.22zM20.77 11.55h-2.5a.75.75 0 0 1 0-1.5h2.5a.75.75 0 0 1 0 1.5z"/><path d="M16.182 20.224a4.787 4.787 0 0 1-1.496-.241l-3.318-1.187a6.68 6.68 0 0 1-.66-.259C9.905 18.184 8.903 18 7.75 18h-.67c-.414 0-.755-.336-.755-.75s.331-.75.745-.75h.68c1.363 0 2.568.227 3.583.673.185.088.359.147.534.208l3.306 1.182a3.232 3.232 0 0 0 3.297-.794l1.5-1.5a.749.749 0 0 1 .53-.22h1.25a.75.75 0 0 0 .01-1.5.75.75 0 0 1-.009-1.5.746.746 0 0 0 .749-.783c-.014-.388-.408-.717-.86-.717h-.87a.75.75 0 0 1 0-1.5.75.75 0 0 0 0-1.5h-1.81a.75.75 0 0 1 0-1.5h1.81a2.253 2.253 0 0 1 2 3.279c.706.372 1.2 1.077 1.229 1.883a2.241 2.241 0 0 1-.568 1.587 2.256 2.256 0 0 1-1.681 3.752h-.939l-1.28 1.28a4.729 4.729 0 0 1-3.349 1.394zM3.93 18H.75a.75.75 0 0 1 0-1.5h3.18a.75.75 0 0 1 0 1.5z"/><path d="M18.96 8.55h-1.69a.75.75 0 0 1 0-1.5h1.69a.523.523 0 0 0 .383-.889A.536.536 0 0 0 18.96 6l-5.485.02c-1.363.008-2.66.084-3.543.908C9.18 7.621 8.176 8 7.1 8c-.414 0-.765-.336-.765-.75s.321-.75.735-.75c.728 0 1.371-.239 1.842-.672 1.273-1.188 2.947-1.298 4.553-1.308l5.495-.02c.549 0 1.064.216 1.45.607.382.387.588.896.58 1.433a2.018 2.018 0 0 1-2.03 2.01zM3.93 8H.75a.75.75 0 0 1 0-1.5h3.18a.75.75 0 0 1 0 1.5zM20.5 17.55h-4.23a.75.75 0 0 1 0-1.5h4.23a.75.75 0 0 1 0 1.5zM21.76 14.55h-3.49a.75.75 0 0 1 0-1.5h3.48c.414 0 .755.336.755.75s-.331.75-.745.75zM7.25 15.5h-3.5c-.965 0-1.75-.785-1.75-1.75v-3C2 9.785 2.785 9 3.75 9h3.5C8.215 9 9 9.785 9 10.75v3c0 .965-.785 1.75-1.75 1.75zm-3.5-5a.25.25 0 0 0-.25.25v3c0 .138.112.25.25.25h3.5a.25.25 0 0 0 .25-.25v-3a.25.25 0 0 0-.25-.25h-3.5z"/><path d="M7.399 10.5a.75.75 0 0 1-.742-.651L6.344 7.5H4.656l-.313 2.349a.751.751 0 0 1-1.487-.198l.4-3A.751.751 0 0 1 4 6h3a.75.75 0 0 1 .743.651l.4 3a.75.75 0 0 1-.744.849zM7 18.5H4a.75.75 0 0 1-.743-.651l-.4-3a.75.75 0 1 1 1.486-.198L4.656 17h1.688l.313-2.349a.75.75 0 1 1 1.487.198l-.4 3A.751.751 0 0 1 7 18.5z"/></svg>
